<?xml version="1.0" encoding="utf-8" ?>
<svg baseProfile="full" height="400" version="1.1" width="300" xmlns="http://www.w3.org/2000/svg" xmlns:ev="http://www.w3.org/2001/xml-events" xmlns:xlink="http://www.w3.org/1999/xlink"><defs /><line stroke="darkgray" stroke-width="2" x1="30" x2="255.0" y1="100.0" y2="100.0" /><line stroke="darkgray" stroke-width="2" x1="30" x2="255.0" y1="152.0" y2="152.0" /><line stroke="darkgray" stroke-width="2" x1="30" x2="255.0" y1="204.0" y2="204.0" /><line stroke="darkgray" stroke-width="2" x1="30" x2="255.0" y1="256.0" y2="256.0" /><line stroke="darkgray" stroke-width="2" x1="30" x2="255.0" y1="308.0" y2="308.0" /><line stroke="darkgray" stroke-width="2" x1="30" x2="255.0" y1="360.0" y2="360.0" /><circle cx="22" cy="122.0" fill="darkslategray" r="2" /><circle cx="22" cy="130.0" fill="darkslategray" r="2" /><circle cx="22" cy="282.0" fill="darkslategray" r="2" /><text fill="dimgray" font-family="Verdana" font-size="24" font-style="italic" font-weight="bold" text-anchor="start" x="257.0" y="104.8">11fr</text><line stroke="darkslategray" stroke-width="3.0" x1="31.5" x2="31.5" y1="90" y2="370" /><text alignment-baseline="middle" fill="silver" font-family="Verdana" font-size="24" font-weight="bold" text-anchor="middle" x="31.5" y="72.0">X</text><line stroke="darkslategray" stroke-width="2.6666666666666665" x1="75.0" x2="75.0" y1="90" y2="370" /><line stroke="darkslategray" stroke-width="2.3333333333333335" x1="120.0" x2="120.0" y1="90" y2="370" /><line stroke="darkslategray" stroke-width="2.0" x1="165.0" x2="165.0" y1="90" y2="370" /><line stroke="darkslategray" stroke-width="1.6666666666666667" x1="210.0" x2="210.0" y1="90" y2="370" /><line stroke="darkslategray" stroke-width="1.3333333333333335" x1="254.33333333333334" x2="254.33333333333334" y1="90" y2="370" /><line stroke="black" stroke-linecap="round" stroke-width="40" x1="165.0" x2="255.0" y1="126.0" y2="126.0" /><line stroke="darkslategray" stroke-linecap="round" stroke-width="36" x1="165.0" x2="255.0" y1="126.0" y2="126.0" /><text alignment-baseline="central" fill="white" font-family="Verdana" font-size="24" font-weight="bold" text-anchor="middle" x="165.0" y="126.0">1</text><circle cx="75.0" cy="282.0" fill="darkslategray" r="18" stroke="black" stroke-width="2" /><text alignment-baseline="central" fill="white" font-family="Verdana" font-size="24" font-weight="bold" text-anchor="middle" x="75.0" y="282.0">4</text><circle cx="120.0" cy="230.0" fill="darkslategray" r="18" stroke="black" stroke-width="2" /><text alignment-baseline="central" fill="white" font-family="Verdana" font-size="24" font-weight="bold" text-anchor="middle" x="120.0" y="230.0">3</text><circle cx="210.0" cy="178.0" fill="darkslategray" r="18" stroke="black" stroke-width="2" /><text alignment-baseline="central" fill="white" font-family="Verdana" font-size="24" font-weight="bold" text-anchor="middle" x="210.0" y="178.0">2</text><text alignment-baseline="central" fill="dimgray" font-family="Verdana" font-size="30" font-weight="bold" text-anchor="middle" x="142.5" y="30">C</text></svg>