<?xml version="1.0" encoding="utf-8" ?>
<svg baseProfile="full" height="400" version="1.1" width="300" xmlns="http://www.w3.org/2000/svg" xmlns:ev="http://www.w3.org/2001/xml-events" xmlns:xlink="http://www.w3.org/1999/xlink"><defs /><line stroke="darkgray" stroke-width="2" x1="30" x2="242" y1="40.0" y2="40.0" /><line stroke="darkgray" stroke-width="2" x1="30" x2="242" y1="120.0" y2="120.0" /><line stroke="darkgray" stroke-width="2" x1="30" x2="242" y1="200.0" y2="200.0" /><line stroke="darkgray" stroke-width="2" x1="30" x2="242" y1="280.0" y2="280.0" /><line stroke="darkgray" stroke-width="2" x1="30" x2="242" y1="360.0" y2="360.0" /><circle cx="22" cy="80.0" fill="darkslategray" r="2" /><circle cx="22" cy="240.0" fill="darkslategray" r="2" /><text alignment-baseline="central" fill="dimgray" font-family="Verdana" font-size="24" font-style="italic" font-weight="bold" text-anchor="middle" x="276.0" y="80.0">5</text><line stroke="darkslategray" stroke-width="3.0" x1="31.5" x2="31.5" y1="30" y2="370" /><line stroke="darkslategray" stroke-width="2.6666666666666665" x1="72.4" x2="72.4" y1="30" y2="370" /><line stroke="darkslategray" stroke-width="2.3333333333333335" x1="114.8" x2="114.8" y1="30" y2="370" /><line stroke="darkslategray" stroke-width="2.0" x1="157.2" x2="157.2" y1="30" y2="370" /><line stroke="darkslategray" stroke-width="1.6666666666666667" x1="199.6" x2="199.6" y1="30" y2="370" /><line stroke="darkslategray" stroke-width="1.3333333333333335" x1="241.33333333333334" x2="241.33333333333334" y1="30" y2="370" /><circle cx="30.0" cy="80.0" fill="salmon" r="18" stroke="black" stroke-width="2" /><text alignment-baseline="central" fill="white" font-family="Verdana" font-size="24" font-weight="bold" text-anchor="middle" x="30.0" y="80.0">A</text><circle cx="72.4" cy="80.0" fill="cornflowerblue" r="18" stroke="black" stroke-width="2" /><text alignment-baseline="central" fill="white" font-family="Verdana" font-size="24" font-weight="bold" text-anchor="middle" x="72.4" y="80.0">D</text><circle cx="114.8" cy="80.0" fill="cornflowerblue" r="18" stroke="black" stroke-width="2" /><text alignment-baseline="central" fill="white" font-family="Verdana" font-size="24" font-weight="bold" text-anchor="middle" x="114.8" y="80.0">G</text><circle cx="157.2" cy="80.0" fill="cornflowerblue" r="18" stroke="black" stroke-width="2" /><text alignment-baseline="central" fill="white" font-family="Verdana" font-size="24" font-weight="bold" text-anchor="middle" x="157.2" y="80.0">C</text><circle cx="199.6" cy="80.0" fill="cornflowerblue" r="18" stroke="black" stroke-width="2" /><text alignment-baseline="central" fill="white" font-family="Verdana" font-size="24" font-weight="bold" text-anchor="middle" x="199.6" y="80.0">E</text><circle cx="242.0" cy="80.0" fill="salmon" r="18" stroke="black" stroke-width="2" /><text alignment-baseline="central" fill="white" font-family="Verdana" font-size="24" font-weight="bold" text-anchor="middle" x="242.0" y="80.0">A</text><circle cx="30.0" cy="320.0" fill="cornflowerblue" r="18" stroke="black" stroke-width="2" /><text alignment-baseline="central" fill="white" font-family="Verdana" font-size="24" font-weight="bold" text-anchor="middle" x="30.0" y="320.0">C</text><circle cx="72.4" cy="240.0" fill="cornflowerblue" r="18" stroke="black" stroke-width="2" /><text alignment-baseline="central" fill="white" font-family="Verdana" font-size="24" font-weight="bold" text-anchor="middle" x="72.4" y="240.0">E</text><circle cx="114.8" cy="240.0" fill="salmon" r="18" stroke="black" stroke-width="2" /><text alignment-baseline="central" fill="white" font-family="Verdana" font-size="24" font-weight="bold" text-anchor="middle" x="114.8" y="240.0">A</text><circle cx="157.2" cy="240.0" fill="cornflowerblue" r="18" stroke="black" stroke-width="2" /><text alignment-baseline="central" fill="white" font-family="Verdana" font-size="24" font-weight="bold" text-anchor="middle" x="157.2" y="240.0">D</text><circle cx="199.6" cy="320.0" fill="cornflowerblue" r="18" stroke="black" stroke-width="2" /><text alignment-baseline="central" fill="white" font-family="Verdana" font-size="24" font-weight="bold" text-anchor="middle" x="199.6" y="320.0">G</text><circle cx="242.0" cy="320.0" fill="cornflowerblue" r="18" stroke="black" stroke-width="2" /><text alignment-baseline="central" fill="white" font-family="Verdana" font-size="24" font-weight="bold" text-anchor="middle" x="242.0" y="320.0">C</text></svg>