<?xml version="1.0" encoding="utf-8" ?>
<svg baseProfile="full" height="400" version="1.1" width="300" xmlns="http://www.w3.org/2000/svg" xmlns:ev="http://www.w3.org/2001/xml-events" xmlns:xlink="http://www.w3.org/1999/xlink"><defs /><line stroke="darkgray" stroke-width="2" x1="30" x2="255.0" y1="40.0" y2="40.0" /><line stroke="darkgray" stroke-width="2" x1="30" x2="255.0" y1="120.0" y2="120.0" /><line stroke="darkgray" stroke-width="2" x1="30" x2="255.0" y1="200.0" y2="200.0" /><line stroke="darkgray" stroke-width="2" x1="30" x2="255.0" y1="280.0" y2="280.0" /><line stroke="darkgray" stroke-width="2" x1="30" x2="255.0" y1="360.0" y2="360.0" /><circle cx="22" cy="80.0" fill="darkslategray" r="2" /><circle cx="22" cy="240.0" fill="darkslategray" r="2" /><text fill="dimgray" font-family="Verdana" font-size="24" font-style="italic" font-weight="bold" text-anchor="start" x="257.0" y="44.8">4fr</text><line stroke="darkslategray" stroke-width="3.0" x1="31.5" x2="31.5" y1="30" y2="370" /><line stroke="darkslategray" stroke-width="2.6666666666666665" x1="75.0" x2="75.0" y1="30" y2="370" /><line stroke="darkslategray" stroke-width="2.3333333333333335" x1="120.0" x2="120.0" y1="30" y2="370" /><line stroke="darkslategray" stroke-width="2.0" x1="165.0" x2="165.0" y1="30" y2="370" /><line stroke="darkslategray" stroke-width="1.6666666666666667" x1="210.0" x2="210.0" y1="30" y2="370" /><line stroke="darkslategray" stroke-width="1.3333333333333335" x1="254.33333333333334" x2="254.33333333333334" y1="30" y2="370" /><circle cx="30.0" cy="80.0" fill="salmon" r="18" stroke="black" stroke-width="2" /><text alignment-baseline="central" fill="white" font-family="Verdana" font-size="24" font-weight="bold" text-anchor="middle" x="30.0" y="80.0">A</text><circle cx="75.0" cy="80.0" fill="cornflowerblue" r="18" stroke="black" stroke-width="2" /><text alignment-baseline="central" fill="white" font-family="Verdana" font-size="24" font-weight="bold" text-anchor="middle" x="75.0" y="80.0">D</text><circle cx="120.0" cy="80.0" fill="cornflowerblue" r="18" stroke="black" stroke-width="2" /><text alignment-baseline="central" fill="white" font-family="Verdana" font-size="24" font-weight="bold" text-anchor="middle" x="120.0" y="80.0">G</text><circle cx="165.0" cy="80.0" fill="cornflowerblue" r="18" stroke="black" stroke-width="2" /><text alignment-baseline="central" fill="white" font-family="Verdana" font-size="24" font-weight="bold" text-anchor="middle" x="165.0" y="80.0">C</text><circle cx="210.0" cy="80.0" fill="cornflowerblue" r="18" stroke="black" stroke-width="2" /><text alignment-baseline="central" fill="white" font-family="Verdana" font-size="24" font-weight="bold" text-anchor="middle" x="210.0" y="80.0">E</text><circle cx="255.0" cy="80.0" fill="salmon" r="18" stroke="black" stroke-width="2" /><text alignment-baseline="central" fill="white" font-family="Verdana" font-size="24" font-weight="bold" text-anchor="middle" x="255.0" y="80.0">A</text><circle cx="30.0" cy="320.0" fill="cornflowerblue" r="18" stroke="black" stroke-width="2" /><text alignment-baseline="central" fill="white" font-family="Verdana" font-size="24" font-weight="bold" text-anchor="middle" x="30.0" y="320.0">C</text><circle cx="75.0" cy="240.0" fill="cornflowerblue" r="18" stroke="black" stroke-width="2" /><text alignment-baseline="central" fill="white" font-family="Verdana" font-size="24" font-weight="bold" text-anchor="middle" x="75.0" y="240.0">E</text><circle cx="120.0" cy="240.0" fill="salmon" r="18" stroke="black" stroke-width="2" /><text alignment-baseline="central" fill="white" font-family="Verdana" font-size="24" font-weight="bold" text-anchor="middle" x="120.0" y="240.0">A</text><circle cx="165.0" cy="240.0" fill="cornflowerblue" r="18" stroke="black" stroke-width="2" /><text alignment-baseline="central" fill="white" font-family="Verdana" font-size="24" font-weight="bold" text-anchor="middle" x="165.0" y="240.0">D</text><circle cx="210.0" cy="320.0" fill="cornflowerblue" r="18" stroke="black" stroke-width="2" /><text alignment-baseline="central" fill="white" font-family="Verdana" font-size="24" font-weight="bold" text-anchor="middle" x="210.0" y="320.0">G</text><circle cx="255.0" cy="320.0" fill="cornflowerblue" r="18" stroke="black" stroke-width="2" /><text alignment-baseline="central" fill="white" font-family="Verdana" font-size="24" font-weight="bold" text-anchor="middle" x="255.0" y="320.0">C</text></svg>